<svg xmlns="http://www.w3.org/2000/svg" viewBox="0 0 1782.2 1782.2"><title>circles</title><path fill="none" d="M706.3 601.5c-100.1 60.9-166.9 171.1-166.9 296.9 0 67.6 19.3 130.7 52.7 184.1m385.5 151c86.2-23.5 159.1-79.4 204.8-153.9"/><path fill="none" stroke="#2A2C43" stroke-width="7.493" stroke-linecap="round" d="M644.8 613.5C567.2 680.8 518.1 780.2 518.1 891m505.7 339.9c133.7-54.8 227.9-186.3 227.9-339.9 0-72.4-21-140-57.1-196.9"/><path opacity=".287" fill="none" stroke="#414250" stroke-width="7.493" stroke-linecap="round" d="M603.3 635.5c-60.9 67.6-98 157.1-98 255.3 0 210.7 170.6 381.5 381.2 381.5 122.5 0 231.6-57.9 301.3-147.8"/><path fill="none" stroke="#B5B5B7" stroke-width="7.493" stroke-linecap="round" d="M502.1 976c39 176.6 196.3 308.6 384.4 308.6 217.4 0 393.6-176.4 393.6-393.9 0-146.2-79.6-273.8-197.7-341.8"/><path fill="none" stroke="#414250" stroke-width="7.493" stroke-linecap="round" d="M472.9 889.2c-.3 130.7 61.1 259.4 176.2 340 187 131 444.9 85.4 575.9-101.8s85.7-445.1-101.3-576"/><path fill="none" stroke="#252839" stroke-width="8.646" stroke-linecap="round" d="M982.3 475.7c-30.6-7-62.4-10.6-95-10.6-235.6 0-426.5 191.1-426.5 426.9 0 78.9 21.4 152.8 58.7 216.2m394.4 209.9c197.7-12.2 359-159.1 393.2-350.2"/><path fill="none" stroke="#414250" stroke-width="10.951" stroke-linecap="round" d="M703.9 482.4c-154.4 70.2-261.8 225.9-261.8 406.7 0 118.1 45.9 225.6 120.7 305.4m447.3 124.1c141.4-40.1 254.2-148.2 300.9-286.7"/><path fill="none" stroke="#677077" stroke-width="5.187" stroke-linecap="round" d="M417.6 901.5c2.4 104.8 40 207.1 107.5 288.9m218.3 148.2c209.7 68 444.9-19.4 555.7-219.3 104.6-188.7 65.5-418.2-81.2-562.6M810.2 430.2C692.7 449.8 582.6 513.8 507 617.8"/><path fill="none" stroke="#414250" stroke-width="10.356" stroke-linecap="round" d="M585.8 488.1c-122.6 91.7-202 238.1-202 403 0 277.7 224.9 502.8 502.3 502.8s502.3-225.1 502.3-502.8c0-106.9-33.3-206-90.2-287.5"/><path fill="none" stroke="#FFF" stroke-width="7.493" stroke-linecap="round" d="M687.6 1382.6c150.9 61 313.3 47.4 446.7-23.3m150.9-119.7c37.8-43.4 69.2-93.7 92-150.1 31.2-77.1 42.9-157.3 37.5-235.1M1187 454.6c-31.4-21.6-65.5-40.1-102.3-55-271.2-109.6-579.9 21.6-689.6 293-18.4 45.6-30 92.2-35.4 138.8"/><ellipse fill="none" stroke="#2A2C43" stroke-width="16.091" cx="886.1" cy="891.1" rx="576.3" ry="576.7"/><ellipse fill="none" stroke="#F1B631" stroke-width="5.187" cx="886.1" cy="891.1" rx="624.6" ry="625.1"/><ellipse fill="none" stroke="#FFF" stroke-width="1.642" cx="886.1" cy="891.1" rx="601.2" ry="601.7"/><path opacity=".29" fill="none" stroke="#414250" stroke-width="10.951" stroke-linecap="round" d="M417 442.9C305.9 559.4 237.6 717.3 237.6 891.1c0 67.9 10.4 133.4 29.8 195m226.8 322.2c108.9 82.8 244.7 131.9 391.9 131.9 237.3 0 444.9-127.6 557.9-318m70.3-493.2c-68.7-267.3-303.2-468-587.3-485.7"/><ellipse fill="none" stroke="#577590" stroke-width="3.726" cx="886.1" cy="893.8" rx="676.6" ry="677.2"/><path fill="none" stroke="#414250" stroke-width="18.041" stroke-linecap="round" d="M790.5 1637.3c31.3 4 63.2 6 95.6 6 415.1 0 751.6-336.8 751.6-752.2 0-181.9-64.5-348.7-171.9-478.8M983 145.1c-31.7-4.1-64.1-6.2-96.9-6.2-415.1 0-751.6 336.8-751.6 752.2 0 146.1 41.6 282.5 113.7 398"/><ellipse fill="none" stroke="#2A2C43" stroke-width="6.606" cx="887" cy="893.1" rx="825.1" ry="825.7"/><circle opacity=".299" fill="none" stroke="#677077" stroke-width="2.174" stroke-linecap="round" cx="891.1" cy="891.1" r="890"/></svg>